<svg width="24" height="38" viewBox="0 0 24 38" fill="none" xmlns="http://www.w3.org/2000/svg">
<path fillRule="evenodd" clipRule="evenodd" d="M6.16683 3.86947C4.78612 3.86947 3.66683 4.98875 3.66683 6.36947V31.6299C3.66683 33.0106 4.78612 34.1299 6.16683 34.1299H17.8335C19.2142 34.1299 20.3335 33.0106 20.3335 31.6299V6.36947C20.3335 4.98875 19.2142 3.86947 17.8335 3.86947H17.6945L17.2886 4.84355C17.0298 5.46458 16.423 5.86909 15.7502 5.86909H8.25016C7.57737 5.86909 6.97055 5.46458 6.71174 4.84355L6.3058 3.86947H6.16683ZM0.333496 6.36947C0.333496 3.1478 2.94517 0.536133 6.16683 0.536133H17.8335C21.0552 0.536133 23.6668 3.1478 23.6668 6.36947V31.6299C23.6668 34.8515 21.0552 37.4632 17.8335 37.4632H6.16683C2.94517 37.4632 0.333496 34.8515 0.333496 31.6299V6.36947Z" fill="#FF5A30"/>
</svg>
