<svg width="40" height="40" viewBox="0 0 40 40" fill="none" xmlns="http://www.w3.org/2000/svg">
<path fill-rule="evenodd" clip-rule="evenodd" d="M36.5387 17.6113C36.3013 19.2559 35.7387 20.8189 34.905 22.2563C34.9675 22.6121 34.9996 22.9719 34.9996 23.3331C34.9996 24.5878 34.636 25.7886 33.9626 26.8796C33.6264 27.4242 33.5399 28.0623 33.5067 28.4839C33.4685 28.9671 33.4814 29.4958 33.5159 30.0037C33.5546 30.5735 33.6246 31.1717 33.7048 31.736C33.0543 31.5463 32.3492 31.3558 31.6763 31.204C31.1166 31.0777 30.5439 30.9701 30.0252 30.9165C29.5727 30.8698 28.9188 30.8336 28.3341 31.0226C27.0556 31.4359 25.6488 31.6665 24.1662 31.6665C22.403 31.6665 20.7837 31.3535 19.3643 30.8098C19.0229 30.8253 18.679 30.8331 18.3328 30.8331C16.3252 30.8331 14.3929 30.5691 12.585 30.0811C15.2132 33.1209 19.546 34.9998 24.1662 34.9998C25.9711 34.9998 27.7034 34.7227 29.2999 34.2135C29.3027 34.2136 29.3078 34.2135 29.3153 34.2133C29.3563 34.2125 29.4701 34.2103 29.6827 34.2322C30.017 34.2667 30.4469 34.3438 30.9428 34.4556C31.9301 34.6783 33.0395 35.007 33.9041 35.2814C35.7377 35.8635 37.5143 34.2634 37.1866 32.4027C37.0456 31.6019 36.899 30.6245 36.8415 29.7778C36.8126 29.3521 36.8094 29.0026 36.8297 28.7462C36.8381 28.6399 36.8488 28.5733 36.8556 28.5379C37.7933 26.9846 38.3329 25.216 38.3329 23.3331C38.3329 21.2105 37.6736 19.2723 36.5387 17.6113Z" fill="#FF5A30"/>
<path fill-rule="evenodd" clip-rule="evenodd" d="M9.32822 9.49661C7.08162 11.2146 5.83315 13.4698 5.83315 15.833C5.83315 17.0114 6.13991 18.1463 6.71545 19.2017C6.93466 19.6037 6.99685 20.0183 7.01909 20.299C7.04334 20.6051 7.03125 20.9197 7.00463 21.2139C6.95134 21.8028 6.82421 22.4701 6.67172 23.1274C6.49336 23.8962 6.2648 24.7162 6.03288 25.486C6.9133 25.166 7.87557 24.8381 8.78782 24.5719C9.5251 24.3568 10.2697 24.1702 10.9323 24.0654C11.5032 23.9751 12.3316 23.8864 13.0447 24.1332C14.6453 24.6869 16.4358 24.9997 18.3331 24.9997C21.9118 24.9997 25.0899 23.8886 27.3381 22.1694C29.5847 20.4514 30.8331 18.1962 30.8331 15.833C30.8331 13.4698 29.5847 11.2146 27.3381 9.49661C25.0899 7.77745 21.9118 6.66634 18.3331 6.66634C14.7545 6.66634 11.5763 7.77745 9.32822 9.49661ZM7.30338 6.84875C10.1826 4.64702 14.0877 3.33301 18.3331 3.33301C22.5786 3.33301 26.4837 4.64702 29.3629 6.84875C32.2436 9.05167 34.1665 12.2131 34.1665 15.833C34.1665 19.4529 32.2436 22.6143 29.3629 24.8173C26.4837 27.019 22.5786 28.333 18.3331 28.333C16.0947 28.333 13.9566 27.9681 12.0153 27.3041C12.0133 27.3095 11.8559 27.2941 11.4529 27.3578C10.9885 27.4313 10.3957 27.5751 9.72138 27.7719C8.37894 28.1635 6.87136 28.7176 5.72304 29.1645C3.73366 29.9387 1.70707 28.0281 2.37734 25.9929C2.73259 24.9142 3.15157 23.5511 3.42463 22.3741C3.56219 21.7812 3.65145 21.2827 3.68486 20.9135C3.69645 20.7853 3.69945 20.6919 3.69878 20.6288C2.93164 19.1629 2.49981 17.5417 2.49981 15.833C2.49981 12.2131 4.42265 9.05167 7.30338 6.84875ZM3.69329 20.5379C3.69345 20.5377 3.69426 20.5422 3.69523 20.5518C3.69362 20.5429 3.69313 20.5381 3.69329 20.5379Z" fill="#FF5A30"/>
</svg>
