<svg width="48" height="48" viewBox="0 0 48 48" fill="none" xmlns="http://www.w3.org/2000/svg">
<g clip-path="url(#clip0_2193_886)">
<path d="M38.0531 2.09001C31.8838 1.44159 26.3372 5.93317 25.6888 12.1024L24.5619 22.8246C24.4807 23.597 25.041 24.289 25.8134 24.3702L26.2796 24.4192L25.1036 35.6075C24.5633 40.7486 28.3063 45.3708 33.4473 45.9111C38.5884 46.4515 43.2106 42.7085 43.7509 37.5674L44.9269 26.3791L45.3931 26.4281C46.1654 26.5092 46.8574 25.9489 46.9386 25.1765L48.0655 14.4543C48.714 8.28506 44.2224 2.73842 38.0531 2.09001ZM37.7591 4.8871C42.3861 5.37341 45.7548 9.53339 45.2685 14.1603L44.8765 17.8898L28.0939 16.1259L28.4859 12.3964C28.9722 7.76947 33.1322 4.40079 37.7591 4.8871ZM27.5059 21.7201L27.7999 18.923L44.5825 20.6869L44.2885 23.484L27.5059 21.7201ZM40.9538 37.2735C40.5756 40.8722 37.3401 43.4923 33.7413 43.114C30.1426 42.7358 27.5225 39.5003 27.9007 35.9015L29.0767 24.7131L42.1298 26.0851L40.9538 37.2735Z" fill="#FF5A30"/>
<path d="M32.1705 40.1218L35.8999 40.5138C36.6723 40.595 37.3643 40.0346 37.4455 39.2622C37.5267 38.4899 36.9663 37.7979 36.1939 37.7167L32.4645 37.3247C31.6921 37.2435 31.0001 37.8039 30.9189 38.5763C30.8377 39.3487 31.3981 40.0406 32.1705 40.1218Z" fill="#FF5A30"/>
<path d="M9.94716 2.08968C3.77789 2.7381 -0.713682 8.28473 -0.0652657 14.454L1.06168 25.1762C1.14286 25.9486 1.83485 26.5089 2.60722 26.4277L3.0734 26.3787L4.24935 37.5671C4.7897 42.7082 9.41189 46.4511 14.5529 45.9108C19.694 45.3705 23.437 40.7483 22.8966 35.6072L21.7207 24.4188L22.1869 24.3698C22.9592 24.2887 23.5196 23.5967 23.4384 22.8243L22.3115 12.1021C21.6631 5.93284 16.1164 1.44126 9.94716 2.08968ZM3.71178 23.4837L3.4178 20.6866L20.2004 18.9226L20.4943 21.7197L3.71178 23.4837ZM20.0995 35.9012C20.4778 39.4999 17.8577 42.7355 14.259 43.1137C10.6602 43.492 7.42468 40.8719 7.04644 37.2731L5.8705 26.0848L18.9236 24.7128L20.0995 35.9012ZM19.9064 16.1255L3.12381 17.8895L2.73183 14.16C2.24552 9.53306 5.6142 5.37308 10.2411 4.88677C14.8681 4.40046 19.0281 7.76914 19.5144 12.3961L19.9064 16.1255Z" fill="#FF5A30"/>
<path d="M12.1002 40.5134L15.8297 40.1214C16.6021 40.0402 17.1624 39.3482 17.0813 38.5759C17.0001 37.8035 16.3081 37.2431 15.5357 37.3243L11.8063 37.7163C11.0339 37.7975 10.4735 38.4895 10.5547 39.2618C10.6359 40.0342 11.3279 40.5946 12.1002 40.5134Z" fill="#FF5A30"/>
</g>
<defs>
<clipPath id="clip0_2193_886">
<rect width="48" height="48" fill="white"/>
</clipPath>
</defs>
</svg>
