<svg width="48" height="48" viewBox="0 0 48 48" fill="none" xmlns="http://www.w3.org/2000/svg">
<circle cx="24" cy="24" r="24" transform="rotate(180 24 24)" fill="white"/>
<path fill-rule="evenodd" clip-rule="evenodd" d="M21.2071 29.2071C20.8166 29.5976 20.1834 29.5976 19.7929 29.2071L15.2929 24.7071C14.9024 24.3166 14.9024 23.6834 15.2929 23.2929L19.7929 18.7929C20.1834 18.4024 20.8166 18.4024 21.2071 18.7929C21.5976 19.1834 21.5976 19.8166 21.2071 20.2071L18.4142 23L32 23C32.5523 23 33 23.4477 33 24C33 24.5523 32.5523 25 32 25L18.4142 25L21.2071 27.7929C21.5976 28.1834 21.5976 28.8166 21.2071 29.2071Z" fill="#424551"/>
</svg>
